<svg width="240" height="50" viewBox="0 0 240 50" fill="none" xmlns="http://www.w3.org/2000/svg">
<path d="M10.78 22.96H0.28L7 6.88H13.9L10.78 22.96ZM24.4 22.96H13.96L20.68 6.88H27.52L24.4 22.96Z" fill="#7B7B7B"/>
<path d="M66.2809 20.44C66.2809 22.88 65.7209 25.12 64.6009 27.16C63.4809 29.16 61.7609 30.78 59.4409 32.02C57.1209 33.26 54.2409 33.88 50.8009 33.88H44.4409V49H34.1809V6.88H50.8009C54.1609 6.88 57.0009 7.46 59.3209 8.62C61.6409 9.78 63.3809 11.38 64.5409 13.42C65.7009 15.46 66.2809 17.8 66.2809 20.44ZM50.0209 25.72C51.9809 25.72 53.4409 25.26 54.4009 24.34C55.3609 23.42 55.8409 22.12 55.8409 20.44C55.8409 18.76 55.3609 17.46 54.4009 16.54C53.4409 15.62 51.9809 15.16 50.0209 15.16H44.4409V25.72H50.0209ZM76.7823 12.04C74.9823 12.04 73.5023 11.52 72.3423 10.48C71.2223 9.4 70.6623 8.08 70.6623 6.52C70.6623 4.92 71.2223 3.6 72.3423 2.56C73.5023 1.48 74.9823 0.939996 76.7823 0.939996C78.5423 0.939996 79.9823 1.48 81.1023 2.56C82.2623 3.6 82.8423 4.92 82.8423 6.52C82.8423 8.08 82.2623 9.4 81.1023 10.48C79.9823 11.52 78.5423 12.04 76.7823 12.04ZM81.8823 15.52V49H71.6223V15.52H81.8823ZM109.118 49L102.698 39.7L97.2977 49H86.1977L97.2377 31.9L85.8977 15.52H97.4177L103.838 24.76L109.238 15.52H120.338L109.118 32.38L120.638 49H109.118ZM156.151 31.72C156.151 32.68 156.091 33.68 155.971 34.72H132.751C132.911 36.8 133.571 38.4 134.731 39.52C135.931 40.6 137.391 41.14 139.111 41.14C141.671 41.14 143.451 40.06 144.451 37.9H155.371C154.811 40.1 153.791 42.08 152.311 43.84C150.871 45.6 149.051 46.98 146.851 47.98C144.651 48.98 142.191 49.48 139.471 49.48C136.191 49.48 133.271 48.78 130.711 47.38C128.151 45.98 126.151 43.98 124.711 41.38C123.271 38.78 122.551 35.74 122.551 32.26C122.551 28.78 123.251 25.74 124.651 23.14C126.091 20.54 128.091 18.54 130.651 17.14C133.211 15.74 136.151 15.04 139.471 15.04C142.711 15.04 145.591 15.72 148.111 17.08C150.631 18.44 152.591 20.38 153.991 22.9C155.431 25.42 156.151 28.36 156.151 31.72ZM145.651 29.02C145.651 27.26 145.051 25.86 143.851 24.82C142.651 23.78 141.151 23.26 139.351 23.26C137.631 23.26 136.171 23.76 134.971 24.76C133.811 25.76 133.091 27.18 132.811 29.02H145.651ZM171.824 4.6V49H161.564V4.6H171.824ZM192.879 49.48C189.959 49.48 187.359 48.98 185.079 47.98C182.799 46.98 180.999 45.62 179.679 43.9C178.359 42.14 177.619 40.18 177.459 38.02H187.599C187.719 39.18 188.259 40.12 189.219 40.84C190.179 41.56 191.359 41.92 192.759 41.92C194.039 41.92 195.019 41.68 195.699 41.2C196.419 40.68 196.779 40.02 196.779 39.22C196.779 38.26 196.279 37.56 195.279 37.12C194.279 36.64 192.659 36.12 190.419 35.56C188.019 35 186.019 34.42 184.419 33.82C182.819 33.18 181.439 32.2 180.279 30.88C179.119 29.52 178.539 27.7 178.539 25.42C178.539 23.5 179.059 21.76 180.099 20.2C181.179 18.6 182.739 17.34 184.779 16.42C186.859 15.5 189.319 15.04 192.159 15.04C196.359 15.04 199.659 16.08 202.059 18.16C204.499 20.24 205.899 23 206.259 26.44H196.779C196.619 25.28 196.099 24.36 195.219 23.68C194.379 23 193.259 22.66 191.859 22.66C190.659 22.66 189.739 22.9 189.099 23.38C188.459 23.82 188.139 24.44 188.139 25.24C188.139 26.2 188.639 26.92 189.639 27.4C190.679 27.88 192.279 28.36 194.439 28.84C196.919 29.48 198.939 30.12 200.499 30.76C202.059 31.36 203.419 32.36 204.579 33.76C205.779 35.12 206.399 36.96 206.439 39.28C206.439 41.24 205.879 43 204.759 44.56C203.679 46.08 202.099 47.28 200.019 48.16C197.979 49.04 195.599 49.48 192.879 49.48Z" fill="url(#paint0_linear_98_53)"/>
<path d="M215.056 6.88H225.556L218.836 22.96H211.936L215.056 6.88ZM228.676 6.88H239.176L232.456 22.96H225.556L228.676 6.88Z" fill="#767676"/>
<defs>
<linearGradient id="paint0_linear_98_53" x1="51.8051" y1="3.3125" x2="195.68" y2="44.3277" gradientUnits="userSpaceOnUse">
<stop stop-color="#8C9F9E"/>
<stop offset="0.489583" stop-color="#72884C"/>
<stop offset="1" stop-color="#5A5A5A"/>
</linearGradient>
</defs>
</svg>
