<svg width="287" height="170" viewBox="0 0 287 170" fill="none" xmlns="http://www.w3.org/2000/svg">
<g filter="url(#filter0_d_302_122)">
<path d="M12.2323 4.21174L272.54 23.5135L261.11 149.866L225.734 157.393L4.04884 139.797L12.2323 4.21174Z" fill="#F7E8B4"/>
</g>
<path d="M236.027 138.692L261.122 149.865L225.735 157.395L236.027 138.692Z" fill="#CDBA75"/>
<g filter="url(#filter1_d_302_122)">
<ellipse cx="244.171" cy="46.6933" rx="12.5959" ry="12.146" transform="rotate(5.16901 244.171 46.6933)" fill="#FCB447"/>
</g>
<path d="M62.7833 87.6933L52.3467 86.7403L50.2226 91.527L43.0923 90.8759L55.7636 63.8361L63.6508 64.5563L71.2153 93.4439L64.0053 92.7855L62.7833 87.6933ZM61.5107 82.2751L58.9799 71.7213L54.6194 81.6459L61.5107 82.2751ZM82.8486 75.2665C83.5805 74.289 84.5731 73.5361 85.8263 73.0079C87.0796 72.4797 88.4763 72.2859 90.0166 72.4265C91.8489 72.5938 93.4663 73.2101 94.8685 74.2754C96.2708 75.3407 97.318 76.7752 98.0102 78.5789C98.7289 80.3851 98.984 82.4301 98.7755 84.7139C98.567 86.9978 97.9445 88.976 96.9081 90.6487C95.9007 92.2973 94.6097 93.5316 93.0353 94.3519C91.4633 95.1455 89.7611 95.4587 87.9287 95.2914C86.3619 95.1483 85.0221 94.718 83.9094 94.0006C82.7992 93.2565 81.9593 92.3363 81.39 91.24L81.1063 94.3471L74.2946 93.7251L76.9863 64.2477L83.798 64.8697L82.8486 75.2665ZM91.8443 84.081C91.9995 82.3814 91.6428 81.01 90.774 79.9666C89.9343 78.8992 88.824 78.3024 87.443 78.1763C86.0887 78.0526 84.8886 78.4385 83.8429 79.3337C82.8237 80.2314 82.2365 81.5301 82.0813 83.2297C81.9261 84.9293 82.2684 86.3128 83.1081 87.3803C83.9744 88.4501 85.0848 89.0469 86.4391 89.1706C87.7935 89.2943 88.9935 88.9084 90.0393 88.0132C91.0875 87.0913 91.6891 85.7806 91.8443 84.081ZM111.419 97.4364C109.242 97.2376 107.319 96.5934 105.651 95.5039C104.01 94.4168 102.764 92.9641 101.912 91.1458C101.087 89.3299 100.78 87.2668 100.991 84.9564C101.2 82.6726 101.887 80.7137 103.054 79.0796C104.223 77.4191 105.727 76.2041 107.564 75.4347C109.402 74.6653 111.409 74.38 113.587 74.5788C115.765 74.7777 117.687 75.4218 119.355 76.5113C121.023 77.6009 122.281 79.068 123.13 80.9129C123.982 82.7312 124.303 84.7823 124.095 87.0661C123.886 89.3499 123.184 91.3209 121.989 92.979C120.822 94.613 119.306 95.8136 117.442 96.5805C115.605 97.35 113.597 97.6353 111.419 97.4364ZM111.958 91.5409C113.259 91.6598 114.405 91.2824 115.395 90.4088C116.412 89.5377 117.001 88.2125 117.164 86.4332C117.326 84.6539 117 83.2451 116.184 82.2066C115.395 81.1705 114.35 80.5931 113.049 80.4743C111.721 80.353 110.575 80.7304 109.611 81.6064C108.65 82.4559 108.087 83.7835 107.922 85.5893C107.76 87.3686 108.06 88.775 108.822 89.8086C109.611 90.8447 110.656 91.4221 111.958 91.5409ZM150.672 78.2865L148.643 100.514L141.831 99.892L142.107 96.8646C141.327 97.7842 140.312 98.4948 139.061 98.9964C137.839 99.474 136.511 99.6473 135.077 99.5163C133.377 99.3611 131.911 98.8523 130.678 97.9899C129.447 97.101 128.538 95.9068 127.952 94.4073C127.366 92.9078 127.162 91.1887 127.339 89.2501L128.524 76.2641L135.296 76.8825L134.194 88.9523C134.058 90.4394 134.338 91.6298 135.033 92.5233C135.728 93.4169 136.726 93.9231 138.027 94.0419C139.355 94.1632 140.441 93.8473 141.287 93.0944C142.132 92.3415 142.623 91.2215 142.758 89.7343L143.861 77.6645L150.672 78.2865ZM166.451 96.3161L165.924 102.092L162.458 101.776C159.988 101.55 158.118 100.777 156.846 99.4556C155.576 98.108 155.067 96.0665 155.316 93.3312L156.124 84.488L153.415 84.2406L153.932 78.5842L156.64 78.8315L157.135 73.414L163.947 74.036L163.452 79.4535L167.914 79.8609L167.397 85.5174L162.936 85.11L162.121 94.0328C162.06 94.6967 162.176 95.1893 162.468 95.5105C162.76 95.8317 163.278 96.0263 164.021 96.0942L166.451 96.3161ZM187.405 75.8568L185.877 92.5871C185.725 94.2602 186.019 95.5857 186.759 96.5638C187.5 97.5419 188.667 98.1037 190.261 98.2492C191.854 98.3947 193.117 98.0548 194.049 97.2295C194.981 96.4042 195.524 95.155 195.677 93.4819L197.204 76.7516L204.016 77.3735L202.492 94.0641C202.264 96.5604 201.54 98.6231 200.32 100.252C199.1 101.881 197.547 103.052 195.662 103.763C193.802 104.477 191.771 104.733 189.566 104.532C187.362 104.331 185.423 103.725 183.747 102.715C182.101 101.681 180.853 100.255 180.001 98.437C179.152 96.5922 178.841 94.4216 179.069 91.9253L180.593 75.2348L187.405 75.8568ZM215.259 106.918C213.32 106.741 211.625 106.252 210.171 105.45C208.718 104.648 207.606 103.635 206.834 102.414C206.064 101.165 205.692 99.8189 205.716 98.3752L212.448 98.9899C212.458 99.7673 212.759 100.424 213.353 100.96C213.947 101.497 214.708 101.807 215.638 101.892C216.487 101.97 217.153 101.87 217.633 101.592C218.143 101.291 218.422 100.874 218.47 100.343C218.528 99.7058 218.239 99.2107 217.602 98.858C216.967 98.4787 215.923 98.0352 214.47 97.5277C212.91 97.0104 211.618 96.5041 210.592 96.0087C209.568 95.4868 208.711 94.7525 208.021 93.8059C207.334 92.8326 207.059 91.5892 207.197 90.0755C207.314 88.8008 207.764 87.6771 208.549 86.7045C209.363 85.7077 210.475 84.9657 211.886 84.4786C213.322 83.9939 214.983 83.8377 216.869 84.0098C219.657 84.2644 221.785 85.155 223.252 86.6814C224.746 88.2102 225.508 90.1275 225.539 92.4331L219.245 91.8584C219.209 91.0786 218.92 90.4363 218.377 89.9315C217.86 89.4291 217.137 89.1355 216.208 89.0506C215.411 88.9778 214.786 89.0814 214.332 89.3613C213.88 89.6146 213.63 90.0068 213.582 90.5379C213.523 91.1753 213.812 91.6836 214.446 92.0629C215.108 92.4446 216.141 92.8603 217.546 93.3099C219.154 93.8852 220.456 94.4325 221.453 94.952C222.452 95.4449 223.294 96.1913 223.98 97.1911C224.694 98.1667 224.994 99.4259 224.88 100.969C224.761 102.27 224.283 103.404 223.444 104.372C222.635 105.316 221.514 106.017 220.079 106.475C218.672 106.935 217.065 107.083 215.259 106.918Z" fill="#414141"/>
<defs>
<filter id="filter0_d_302_122" x="2.04883" y="0.21167" width="284.491" height="169.181" filterUnits="userSpaceOnUse" color-interpolation-filters="sRGB">
<feFlood flood-opacity="0" result="BackgroundImageFix"/>
<feColorMatrix in="SourceAlpha" type="matrix" values="0 0 0 0 0 0 0 0 0 0 0 0 0 0 0 0 0 0 127 0" result="hardAlpha"/>
<feOffset dx="6" dy="4"/>
<feGaussianBlur stdDeviation="4"/>
<feComposite in2="hardAlpha" operator="out"/>
<feColorMatrix type="matrix" values="0 0 0 0 0 0 0 0 0 0 0 0 0 0 0 0 0 0 0.25 0"/>
<feBlend mode="normal" in2="BackgroundImageFix" result="effect1_dropShadow_302_122"/>
<feBlend mode="normal" in="SourceGraphic" in2="effect1_dropShadow_302_122" result="shape"/>
</filter>
<filter id="filter1_d_302_122" x="230.578" y="32.5427" width="37.186" height="36.3013" filterUnits="userSpaceOnUse" color-interpolation-filters="sRGB">
<feFlood flood-opacity="0" result="BackgroundImageFix"/>
<feColorMatrix in="SourceAlpha" type="matrix" values="0 0 0 0 0 0 0 0 0 0 0 0 0 0 0 0 0 0 127 0" result="hardAlpha"/>
<feOffset dx="5" dy="4"/>
<feGaussianBlur stdDeviation="3"/>
<feComposite in2="hardAlpha" operator="out"/>
<feColorMatrix type="matrix" values="0 0 0 0 0 0 0 0 0 0 0 0 0 0 0 0 0 0 0.25 0"/>
<feBlend mode="normal" in2="BackgroundImageFix" result="effect1_dropShadow_302_122"/>
<feBlend mode="normal" in="SourceGraphic" in2="effect1_dropShadow_302_122" result="shape"/>
</filter>
</defs>
</svg>
