<svg width="95" height="95" viewBox="0 0 95 95" fill="none" xmlns="http://www.w3.org/2000/svg">
<g filter="url(#filter0_d_304_125)">
<circle cx="47.5" cy="43.5" r="43.5" transform="rotate(90 47.5 43.5)" fill="#B4742A"/>
<path d="M48.0607 29.9393C47.4749 29.3536 46.5251 29.3536 45.9393 29.9393L36.3934 39.4853C35.8076 40.0711 35.8076 41.0208 36.3934 41.6066C36.9792 42.1924 37.9289 42.1924 38.5147 41.6066L47 33.1213L55.4853 41.6066C56.0711 42.1924 57.0208 42.1924 57.6066 41.6066C58.1924 41.0208 58.1924 40.0711 57.6066 39.4853L48.0607 29.9393ZM48.5 57.5L48.5 31L45.5 31L45.5 57.5L48.5 57.5Z" fill="white"/>
</g>
<defs>
<filter id="filter0_d_304_125" x="0" y="0" width="95" height="95" filterUnits="userSpaceOnUse" color-interpolation-filters="sRGB">
<feFlood flood-opacity="0" result="BackgroundImageFix"/>
<feColorMatrix in="SourceAlpha" type="matrix" values="0 0 0 0 0 0 0 0 0 0 0 0 0 0 0 0 0 0 127 0" result="hardAlpha"/>
<feOffset dy="4"/>
<feGaussianBlur stdDeviation="2"/>
<feComposite in2="hardAlpha" operator="out"/>
<feColorMatrix type="matrix" values="0 0 0 0 0 0 0 0 0 0 0 0 0 0 0 0 0 0 0.25 0"/>
<feBlend mode="normal" in2="BackgroundImageFix" result="effect1_dropShadow_304_125"/>
<feBlend mode="normal" in="SourceGraphic" in2="effect1_dropShadow_304_125" result="shape"/>
</filter>
</defs>
</svg>
