<svg width="129" height="39" viewBox="0 0 129 39" fill="none" xmlns="http://www.w3.org/2000/svg">
<path d="M18.9666 15.1328C20.5584 15.615 21.792 16.5353 22.6676 17.8938C23.5454 19.2256 23.9159 20.702 23.7792 22.3229C23.5819 24.6612 22.6013 26.4518 20.8372 27.6946C19.102 28.913 16.7729 29.3989 13.8499 29.1523L0.816217 28.0527L3.17682 0.0721308L15.7721 1.13474C18.6153 1.37461 20.7792 2.21282 22.2637 3.64937C23.7747 5.08816 24.4361 6.92359 24.2478 9.15566C24.1088 10.8031 23.5549 12.1346 22.5861 13.1501C21.6439 14.1678 20.4374 14.8287 18.9666 15.1328ZM9.03761 11.9669L13.5017 12.3436C14.6178 12.4377 15.4883 12.2703 16.1132 11.8413C16.767 11.388 17.1342 10.683 17.2149 9.72645C17.2956 8.76984 17.0517 8.01333 16.4831 7.45689C15.9411 6.9027 15.1121 6.57853 13.9961 6.48437L9.53192 6.10775L9.03761 11.9669ZM13.1182 23.551C14.2608 23.6474 15.159 23.4689 15.8128 23.0156C16.4953 22.538 16.8781 21.8076 16.961 20.8244C17.044 19.8412 16.7768 19.0426 16.1596 18.4285C15.569 17.8167 14.7023 17.4626 13.5597 17.3662L8.61727 16.9492L8.09605 23.1273L13.1182 23.551ZM35.4695 12.3102C36.3698 11.1551 37.447 10.2826 38.701 9.6926C39.9573 9.07603 41.3162 8.82939 42.7776 8.95269L42.169 16.1671L40.2956 16.009C38.595 15.8655 37.2882 16.1299 36.3751 16.8022C35.4642 17.4479 34.9315 18.6875 34.7768 20.521L33.9059 30.8444L27.0901 30.2693L28.9664 8.02835L35.7822 8.60337L35.4695 12.3102ZM54.236 32.8807C52.0571 32.6968 50.13 32.0659 48.4547 30.9879C46.8059 29.9122 45.5495 28.4681 44.6855 26.6557C43.8481 24.8456 43.5268 22.7846 43.7219 20.4729C43.9147 18.1876 44.5888 16.224 45.7443 14.582C46.902 12.9134 48.3969 11.6881 50.2292 10.906C52.0614 10.124 54.067 9.82484 56.2459 10.0087C58.4248 10.1925 60.352 10.8234 62.0273 11.9014C63.7026 12.9794 64.9711 14.4378 65.8329 16.2768C66.6969 18.0892 67.0326 20.138 66.8398 22.4232C66.647 24.7084 65.9584 26.6842 64.7742 28.3505C63.6187 29.9925 62.1116 31.2035 60.2528 31.9833C58.4205 32.7654 56.4149 33.0645 54.236 32.8807ZM54.7337 26.9816C56.0357 27.0915 57.1788 26.7062 58.163 25.8258C59.1737 24.9477 59.7542 23.6184 59.9044 21.8381C60.0546 20.0578 59.7183 18.6512 58.8956 17.6184C58.0994 16.5878 57.0503 16.0176 55.7482 15.9077C54.4196 15.7956 53.2765 16.1809 52.3189 17.0635C51.3636 17.9196 50.8097 19.251 50.6572 21.058C50.507 22.8383 50.8167 24.2426 51.5864 25.271C52.3825 26.3016 53.4316 26.8718 54.7337 26.9816ZM103.32 14.3013L95.4254 36.0345L87.8922 35.399L85.602 20.6743L80.7575 34.797L73.2642 34.1649L69.0821 11.4127L75.8978 11.9878L77.705 28.1569L82.7934 12.5695L90.0077 13.1781L92.4593 29.3214L96.9032 13.7599L103.32 14.3013ZM119.492 15.4247C122.096 15.6444 124.097 16.6696 125.494 18.5002C126.921 20.3066 127.51 22.6845 127.261 25.634L126.165 38.6278L119.389 38.0562L120.408 25.9791C120.533 24.491 120.245 23.3026 119.544 22.4139C118.843 21.5251 117.842 21.0258 116.54 20.916C115.238 20.8061 114.166 21.1306 113.326 21.8893C112.486 22.648 112.003 23.7714 111.878 25.2595L110.859 37.3366L104.043 36.7616L105.92 14.5206L112.735 15.0956L112.487 18.0451C113.26 17.1202 114.255 16.4281 115.472 15.9687C116.69 15.4827 118.03 15.3014 119.492 15.4247Z" fill="white"/>
</svg>
