<svg width="285" height="166" viewBox="0 0 285 166" fill="none" xmlns="http://www.w3.org/2000/svg">
<g filter="url(#filter0_d_302_120)">
<path d="M9.77843 4.21795L270.394 18.7968L261.256 145.335L226.022 153.503L4.05467 139.929L9.77843 4.21795Z" fill="#53BCC2"/>
</g>
<path d="M235.974 134.619L261.268 145.335L226.023 153.505L235.974 134.619Z" fill="#46979B"/>
<g filter="url(#filter1_d_302_120)">
<ellipse cx="242.449" cy="42.4872" rx="12.5959" ry="12.146" transform="rotate(4.13011 242.449 42.4872)" fill="#FCB447"/>
</g>
<path d="M88.6692 68.3499C90.261 68.8321 91.4947 69.7524 92.3702 71.1108C93.2481 72.4426 93.6186 73.919 93.4818 75.5399C93.2846 77.8783 92.3039 79.6688 90.5398 80.9116C88.8046 82.13 86.4755 82.616 83.5526 82.3694L70.5189 81.2698L72.8795 53.2892L85.4747 54.3518C88.3179 54.5917 90.4818 55.4299 91.9663 56.8664C93.4774 58.3052 94.1387 60.1406 93.9504 62.3727C93.8114 64.0202 93.2575 65.3517 92.2887 66.3671C91.3465 67.3849 90.14 68.0458 88.6692 68.3499ZM78.7402 65.184L83.2044 65.5606C84.3204 65.6548 85.1909 65.4873 85.8158 65.0584C86.4696 64.605 86.8368 63.9001 86.9175 62.9435C86.9982 61.9869 86.7543 61.2304 86.1857 60.6739C85.6437 60.1197 84.8147 59.7956 83.6987 59.7014L79.2346 59.3248L78.7402 65.184ZM82.8209 76.768C83.9635 76.8644 84.8616 76.686 85.5154 76.2327C86.198 75.755 86.5807 75.0246 86.6637 74.0414C86.7466 73.0583 86.4795 72.2596 85.8622 71.6456C85.2716 71.0338 84.405 70.6796 83.2624 70.5833L78.3199 70.1663L77.7987 76.3443L82.8209 76.768ZM105.172 65.5272C106.072 64.3722 107.15 63.4996 108.404 62.9096C109.66 62.2931 111.019 62.0464 112.48 62.1697L111.872 69.3841L109.998 69.2261C108.298 69.0826 106.991 69.347 106.078 70.0193C105.167 70.665 104.634 71.9046 104.479 73.7381L103.608 84.0614L96.7927 83.4864L98.6691 61.2454L105.485 61.8204L105.172 65.5272ZM123.939 86.0977C121.76 85.9139 119.833 85.283 118.157 84.205C116.509 83.1292 115.252 81.6852 114.388 79.8728C113.551 78.0626 113.229 76.0017 113.425 73.6899C113.617 71.4047 114.291 69.4411 115.447 67.7991C116.605 66.1305 118.1 64.9051 119.932 64.1231C121.764 63.341 123.77 63.0419 125.949 63.2257C128.127 63.4095 130.055 64.0404 131.73 65.1184C133.405 66.1964 134.674 67.6549 135.536 69.4938C136.4 71.3062 136.735 73.355 136.542 75.6402C136.35 77.9255 135.661 79.9012 134.477 81.5676C133.321 83.2096 131.814 84.4205 129.955 85.2003C128.123 85.9824 126.118 86.2815 123.939 86.0977ZM124.436 80.1987C125.738 80.3085 126.881 79.9232 127.866 79.0429C128.876 78.1647 129.457 76.8355 129.607 75.0551C129.757 73.2748 129.421 71.8682 128.598 70.8354C127.802 69.8048 126.753 69.2346 125.451 69.1248C124.122 69.0127 122.979 69.3979 122.022 70.2806C121.066 71.1366 120.512 72.4681 120.36 74.275C120.21 76.0553 120.519 77.4597 121.289 78.488C122.085 79.5186 123.134 80.0888 124.436 80.1987ZM173.023 67.5183L165.128 89.2515L157.595 88.616L155.305 73.8913L150.46 88.0141L142.967 87.3819L138.785 64.6298L145.6 65.2048L147.408 81.3739L152.496 65.7865L159.71 66.3952L162.162 82.5384L166.606 66.9769L173.023 67.5183ZM189.194 68.6418C191.798 68.8615 193.799 69.8866 195.197 71.7173C196.624 73.5236 197.212 75.9015 196.964 78.851L195.867 91.8449L189.091 91.2732L190.11 79.1961C190.236 77.7081 189.948 76.5197 189.247 75.6309C188.546 74.7422 187.544 74.2429 186.242 74.133C184.94 74.0232 183.869 74.3476 183.029 75.1064C182.189 75.8651 181.706 76.9885 181.581 78.4765L180.562 90.5536L173.746 89.9786L175.622 67.7376L182.438 68.3126L182.189 71.2621C182.963 70.3373 183.958 69.6451 185.174 69.1857C186.393 68.6998 187.733 68.5185 189.194 68.6418Z" fill="white"/>
<defs>
<filter id="filter0_d_302_120" x="2.05469" y="0.218018" width="282.339" height="165.285" filterUnits="userSpaceOnUse" color-interpolation-filters="sRGB">
<feFlood flood-opacity="0" result="BackgroundImageFix"/>
<feColorMatrix in="SourceAlpha" type="matrix" values="0 0 0 0 0 0 0 0 0 0 0 0 0 0 0 0 0 0 127 0" result="hardAlpha"/>
<feOffset dx="6" dy="4"/>
<feGaussianBlur stdDeviation="4"/>
<feComposite in2="hardAlpha" operator="out"/>
<feColorMatrix type="matrix" values="0 0 0 0 0 0 0 0 0 0 0 0 0 0 0 0 0 0 0.25 0"/>
<feBlend mode="normal" in2="BackgroundImageFix" result="effect1_dropShadow_302_120"/>
<feBlend mode="normal" in="SourceGraphic" in2="effect1_dropShadow_302_120" result="shape"/>
</filter>
<filter id="filter1_d_302_120" x="228.854" y="28.3384" width="37.188" height="36.2979" filterUnits="userSpaceOnUse" color-interpolation-filters="sRGB">
<feFlood flood-opacity="0" result="BackgroundImageFix"/>
<feColorMatrix in="SourceAlpha" type="matrix" values="0 0 0 0 0 0 0 0 0 0 0 0 0 0 0 0 0 0 127 0" result="hardAlpha"/>
<feOffset dx="5" dy="4"/>
<feGaussianBlur stdDeviation="3"/>
<feComposite in2="hardAlpha" operator="out"/>
<feColorMatrix type="matrix" values="0 0 0 0 0 0 0 0 0 0 0 0 0 0 0 0 0 0 0.25 0"/>
<feBlend mode="normal" in2="BackgroundImageFix" result="effect1_dropShadow_302_120"/>
<feBlend mode="normal" in="SourceGraphic" in2="effect1_dropShadow_302_120" result="shape"/>
</filter>
</defs>
</svg>
