<svg width="284" height="171" viewBox="0 0 284 171" fill="none" xmlns="http://www.w3.org/2000/svg">
<g filter="url(#filter0_d_302_121)">
<path d="M2.239 22.9724L262.571 4.00064L269.741 130.666L235.846 143.285L13.9708 158.297L2.239 22.9724Z" fill="#FD7D63"/>
</g>
<path d="M243.293 123.281L269.753 130.664L235.847 143.287L243.293 123.281Z" fill="#E6735C"/>
<g filter="url(#filter1_d_302_121)">
<ellipse cx="237.896" cy="31.08" rx="12.5959" ry="12.146" transform="rotate(-3.23976 237.896 31.08)" fill="#FCB447"/>
</g>
<path d="M102.939 97.3253L96.3477 87.1755L94.712 87.2942L95.4789 97.8664L88.6568 98.3613L86.6253 70.3549L98.0752 69.5243C100.283 69.3642 102.186 69.6138 103.784 70.2732C105.41 70.9307 106.657 71.9097 107.527 73.2102C108.394 74.4841 108.888 75.9455 109.008 77.5945C109.143 79.4563 108.731 81.1572 107.774 82.6972C106.842 84.2352 105.375 85.3844 103.372 86.1447L110.639 96.7667L102.939 97.3253ZM94.3618 82.4669L98.5907 82.1601C99.8408 82.0694 100.749 81.6961 101.317 81.04C101.911 80.3819 102.167 79.4944 102.086 78.3773C102.009 77.3134 101.629 76.4988 100.946 75.9334C100.29 75.366 99.3372 75.1277 98.0872 75.2184L93.8583 75.5251L94.3618 82.4669ZM119.473 67.9722L121.504 95.9786L114.682 96.4735L112.651 68.467L119.473 67.9722ZM136.602 95.1642C134.554 95.3127 132.695 95.1134 131.024 94.5662C129.353 94.0189 127.979 93.1294 126.9 91.8975C125.848 90.6637 125.229 89.1312 125.043 87.2999L132.303 86.7732C132.485 87.8027 132.902 88.5746 133.554 89.0887C134.205 89.5763 135.022 89.7844 136.006 89.713C137.017 89.6397 137.798 89.3557 138.35 88.8612C138.901 88.34 139.146 87.6671 139.086 86.8426C139.036 86.1511 138.755 85.5966 138.244 85.1792C137.759 84.7599 137.16 84.429 136.447 84.1866C135.761 83.9423 134.779 83.6793 133.502 83.3976C131.653 82.9702 130.137 82.5188 128.952 82.0432C127.768 81.5676 126.724 80.8145 125.821 79.7839C124.917 78.7532 124.402 77.3602 124.274 75.6048C124.085 72.9983 124.882 70.8952 126.664 69.2954C128.445 67.669 130.851 66.7458 133.883 66.5259C136.968 66.3021 139.509 66.8664 141.505 68.2188C143.5 69.5447 144.659 71.5193 144.983 74.1427L137.602 74.6781C137.483 73.7777 137.1 73.097 136.452 72.636C135.801 72.1485 134.997 71.9394 134.04 72.0089C133.215 72.0687 132.567 72.343 132.094 72.8318C131.62 73.294 131.412 73.9373 131.472 74.7618C131.538 75.6661 132.015 76.3401 132.902 76.7837C133.79 77.2273 135.159 77.676 137.01 78.13C138.863 78.6105 140.369 79.0895 141.526 79.567C142.71 80.0426 143.753 80.7824 144.655 81.7865C145.557 82.7906 146.068 84.1304 146.19 85.806C146.306 87.4018 145.999 88.8812 145.269 90.2443C144.565 91.6054 143.47 92.7276 141.983 93.6108C140.497 94.494 138.703 95.0118 136.602 95.1642ZM159.454 65.072C162.406 64.8579 165.029 65.2559 167.321 66.266C169.613 67.2761 171.435 68.8016 172.786 70.8426C174.162 72.855 174.95 75.2442 175.151 78.0103C175.35 80.7497 174.915 83.2277 173.846 85.4442C172.803 87.6588 171.207 89.4322 169.058 90.7645C166.935 92.0949 164.411 92.8662 161.485 93.0784L150.993 93.8395L148.961 65.8331L159.454 65.072ZM160.618 87.2058C163.198 87.0186 165.155 86.1682 166.489 84.6544C167.823 83.1405 168.397 81.0937 168.209 78.5138C168.022 75.9339 167.158 73.9779 165.618 72.6459C164.078 71.3139 162.017 70.7414 159.438 70.9285L156.206 71.163L157.387 87.4402L160.618 87.2058Z" fill="white"/>
<defs>
<filter id="filter0_d_302_121" x="0.23877" y="0.000732422" width="283.502" height="170.296" filterUnits="userSpaceOnUse" color-interpolation-filters="sRGB">
<feFlood flood-opacity="0" result="BackgroundImageFix"/>
<feColorMatrix in="SourceAlpha" type="matrix" values="0 0 0 0 0 0 0 0 0 0 0 0 0 0 0 0 0 0 127 0" result="hardAlpha"/>
<feOffset dx="6" dy="4"/>
<feGaussianBlur stdDeviation="4"/>
<feComposite in2="hardAlpha" operator="out"/>
<feColorMatrix type="matrix" values="0 0 0 0 0 0 0 0 0 0 0 0 0 0 0 0 0 0 0.25 0"/>
<feBlend mode="normal" in2="BackgroundImageFix" result="effect1_dropShadow_302_121"/>
<feBlend mode="normal" in="SourceGraphic" in2="effect1_dropShadow_302_121" result="shape"/>
</filter>
<filter id="filter1_d_302_121" x="224.302" y="16.9321" width="37.1895" height="36.2957" filterUnits="userSpaceOnUse" color-interpolation-filters="sRGB">
<feFlood flood-opacity="0" result="BackgroundImageFix"/>
<feColorMatrix in="SourceAlpha" type="matrix" values="0 0 0 0 0 0 0 0 0 0 0 0 0 0 0 0 0 0 127 0" result="hardAlpha"/>
<feOffset dx="5" dy="4"/>
<feGaussianBlur stdDeviation="3"/>
<feComposite in2="hardAlpha" operator="out"/>
<feColorMatrix type="matrix" values="0 0 0 0 0 0 0 0 0 0 0 0 0 0 0 0 0 0 0.25 0"/>
<feBlend mode="normal" in2="BackgroundImageFix" result="effect1_dropShadow_302_121"/>
<feBlend mode="normal" in="SourceGraphic" in2="effect1_dropShadow_302_121" result="shape"/>
</filter>
</defs>
</svg>
