<svg width="281" height="164" viewBox="0 0 281 164" fill="none" xmlns="http://www.w3.org/2000/svg">
<g filter="url(#filter0_d_316_110)">
<path d="M2.1214 15.7199L262.881 4.00032L266.523 130.816L232.289 142.487L10.0826 151.318L2.1214 15.7199Z" fill="#61EB4A"/>
</g>
<path d="M240.291 122.698L266.535 130.815L232.291 142.489L240.291 122.698Z" fill="#CDBA75"/>
<g filter="url(#filter1_d_316_110)">
<ellipse cx="237.462" cy="30.3824" rx="12.5959" ry="12.146" transform="rotate(-1.64505 237.462 30.3824)" fill="#FCB447"/>
</g>
<path d="M93.8185 91.0116C91.77 91.152 89.9115 90.9453 88.243 90.3914C86.5746 89.8376 85.2035 88.9426 84.1298 87.7064C83.0826 86.4685 82.4696 84.9335 82.2905 83.1015L89.5535 82.6036C89.731 83.6338 90.1449 84.4073 90.7951 84.9241C91.4434 85.4142 92.2598 85.6255 93.2442 85.5581C94.2551 85.4888 95.0378 85.2079 95.592 84.7155C96.1445 84.1965 96.3925 83.5246 96.3359 82.6999C96.2885 82.0082 96.0099 81.4526 95.5 81.0332C95.0167 80.6119 94.4192 80.2787 93.7074 80.0334C93.0222 79.7864 92.0417 79.5195 90.7658 79.2328C88.9184 78.7981 87.4035 78.3406 86.2213 77.8603C85.039 77.3801 83.9981 76.6228 83.0986 75.5886C82.1991 74.5544 81.6891 73.1593 81.5688 71.4034C81.39 68.7962 82.195 66.6962 83.9836 65.1035C85.7703 63.4842 88.1802 62.5706 91.213 62.3627C94.2991 62.1511 96.8377 62.7255 98.8287 64.0858C100.818 65.4196 101.969 67.3988 102.283 70.0235L94.9002 70.5296C94.785 69.6287 94.4041 68.9465 93.7576 68.483C93.1092 67.9928 92.3061 67.7806 91.3484 67.8462C90.5237 67.9028 89.8741 68.1745 89.3996 68.6614C88.9233 69.1218 88.7134 69.7643 88.7699 70.589C88.8319 71.4936 89.3059 72.1694 90.1919 72.6165C91.0779 73.0636 92.4455 73.5178 94.2947 73.9791C96.1458 74.467 97.6491 74.952 98.8048 75.4341C99.9871 75.9143 101.027 76.6583 101.925 77.6659C102.822 78.6735 103.329 80.0154 103.444 81.6914C103.553 83.2877 103.24 84.7659 102.505 86.126C101.796 87.4844 100.696 88.6022 99.2063 89.4795C97.7162 90.3568 95.9202 90.8675 93.8185 91.0116ZM120.229 83.1068L120.626 88.8932L117.154 89.1312C114.68 89.3008 112.71 88.8344 111.244 87.7321C109.777 86.6031 108.949 84.6685 108.762 81.9283L108.154 73.0691L105.441 73.2551L105.052 67.5884L107.766 67.4024L107.394 61.9751L114.218 61.5073L114.59 66.9346L119.059 66.6282L119.448 72.2949L114.978 72.6013L115.591 81.5403C115.637 82.2054 115.829 82.6733 116.168 82.9441C116.508 83.2149 117.05 83.3247 117.795 83.2736L120.229 83.1068ZM134.585 88.257C132.403 88.4066 130.403 88.0759 128.583 87.2652C126.79 86.4526 125.329 85.2163 124.199 83.5563C123.096 81.8945 122.465 79.9063 122.307 77.5918C122.15 75.3038 122.518 73.2605 123.41 71.4619C124.301 69.6368 125.592 68.1984 127.284 67.1469C128.976 66.0954 130.913 65.4948 133.094 65.3453C135.276 65.1957 137.277 65.5264 139.096 66.3371C140.916 67.1479 142.392 68.3966 143.523 70.0832C144.652 71.7431 145.296 73.7171 145.452 76.0051C145.609 78.293 145.229 80.3505 144.312 82.1775C143.42 83.9761 142.114 85.4021 140.395 86.4554C138.703 87.5069 136.766 88.1075 134.585 88.257ZM134.18 82.3509C135.484 82.2615 136.555 81.7069 137.394 80.6872C138.259 79.6656 138.631 78.2636 138.509 76.4811C138.387 74.6986 137.84 73.3595 136.87 72.4637C135.927 71.5662 134.803 71.1621 133.499 71.2514C132.169 71.3426 131.098 71.8972 130.286 72.9151C129.471 73.9065 129.126 75.3067 129.25 77.1158C129.373 78.8982 129.892 80.2392 130.809 81.1386C131.753 82.0361 132.876 82.4402 134.18 82.3509ZM155.388 67.8665C156.102 66.588 157.034 65.5619 158.184 64.7881C159.332 63.9877 160.637 63.5373 162.101 63.437L162.596 70.6601L160.72 70.7887C159.018 70.9054 157.766 71.3654 156.966 72.1687C156.164 72.9453 155.826 74.2515 155.951 76.0872L156.66 86.423L149.836 86.8908L148.309 64.623L155.133 64.1552L155.388 67.8665ZM188.125 61.8935L176.41 95.6939L169.067 96.1973L173.398 84.5137L162.865 63.6252L170.487 63.1027L176.589 76.6771L180.743 62.3996L188.125 61.8935Z" fill="white"/>
<defs>
<filter id="filter0_d_316_110" x="0.121582" y="0.000244141" width="280.401" height="163.318" filterUnits="userSpaceOnUse" color-interpolation-filters="sRGB">
<feFlood flood-opacity="0" result="BackgroundImageFix"/>
<feColorMatrix in="SourceAlpha" type="matrix" values="0 0 0 0 0 0 0 0 0 0 0 0 0 0 0 0 0 0 127 0" result="hardAlpha"/>
<feOffset dx="6" dy="4"/>
<feGaussianBlur stdDeviation="4"/>
<feComposite in2="hardAlpha" operator="out"/>
<feColorMatrix type="matrix" values="0 0 0 0 0 0 0 0 0 0 0 0 0 0 0 0 0 0 0.25 0"/>
<feBlend mode="normal" in2="BackgroundImageFix" result="effect1_dropShadow_316_110"/>
<feBlend mode="normal" in="SourceGraphic" in2="effect1_dropShadow_316_110" result="shape"/>
</filter>
<filter id="filter1_d_316_110" x="223.866" y="16.2358" width="37.1914" height="36.293" filterUnits="userSpaceOnUse" color-interpolation-filters="sRGB">
<feFlood flood-opacity="0" result="BackgroundImageFix"/>
<feColorMatrix in="SourceAlpha" type="matrix" values="0 0 0 0 0 0 0 0 0 0 0 0 0 0 0 0 0 0 127 0" result="hardAlpha"/>
<feOffset dx="5" dy="4"/>
<feGaussianBlur stdDeviation="3"/>
<feComposite in2="hardAlpha" operator="out"/>
<feColorMatrix type="matrix" values="0 0 0 0 0 0 0 0 0 0 0 0 0 0 0 0 0 0 0.25 0"/>
<feBlend mode="normal" in2="BackgroundImageFix" result="effect1_dropShadow_316_110"/>
<feBlend mode="normal" in="SourceGraphic" in2="effect1_dropShadow_316_110" result="shape"/>
</filter>
</defs>
</svg>
