<svg width="133" height="28" viewBox="0 0 133 28" fill="none" xmlns="http://www.w3.org/2000/svg">
<g id="&#226;&#128;&#156;Pixels&#226;&#128;&#157;">
<path d="M5.84564 12.7021H0L3.74121 3.42645H7.58263L5.84564 12.7021ZM13.4283 12.7021H7.61603L11.3572 3.42645H15.1653L13.4283 12.7021Z" fill="white"/>
<path d="M36.7445 11.2485C36.7445 12.656 36.4328 13.9481 35.8092 15.1248C35.1857 16.2785 34.2281 17.213 32.9365 17.9283C31.6449 18.6436 30.0415 19.0012 28.1264 19.0012H24.5856V27.7231H18.8736V3.42645H28.1264C29.997 3.42645 31.5781 3.76102 32.8697 4.43016C34.1613 5.0993 35.13 6.02225 35.7758 7.19901C36.4216 8.37577 36.7445 9.72559 36.7445 11.2485ZM27.6921 14.2942C28.7833 14.2942 29.5962 14.0288 30.1306 13.4981C30.6651 12.9675 30.9323 12.2176 30.9323 11.2485C30.9323 10.2794 30.6651 9.52946 30.1306 8.99877C29.5962 8.46807 28.7833 8.20272 27.6921 8.20272H24.5856V14.2942H27.6921Z" fill="white"/>
<path d="M42.591 6.40297C41.5888 6.40297 40.7649 6.10301 40.1191 5.50309C39.4955 4.8801 39.1838 4.11867 39.1838 3.21879C39.1838 2.29584 39.4955 1.5344 40.1191 0.934487C40.7649 0.311495 41.5888 0 42.591 0C43.5708 0 44.3725 0.311495 44.996 0.934487C45.6418 1.5344 45.9647 2.29584 45.9647 3.21879C45.9647 4.11867 45.6418 4.8801 44.996 5.50309C44.3725 6.10301 43.5708 6.40297 42.591 6.40297ZM45.4303 8.41038V27.7231H39.7182V8.41038H45.4303Z" fill="white"/>
<path d="M60.5929 27.7231L57.0187 22.3585L54.0124 27.7231H47.8327L53.979 17.8591L47.6657 8.41038H54.0792L57.6534 13.7404L60.6597 8.41038H66.8394L60.5929 18.136L67.0064 27.7231H60.5929Z" fill="white"/>
<path d="M86.7777 17.7553C86.7777 18.309 86.7443 18.8859 86.6775 19.4858H73.7503C73.8394 20.6856 74.2068 21.6086 74.8526 22.2546C75.5207 22.8776 76.3335 23.1891 77.2911 23.1891C78.7163 23.1891 79.7073 22.5661 80.264 21.3202H86.3435C86.0317 22.5892 85.4638 23.7314 84.6399 24.7466C83.8382 25.7618 82.8249 26.5579 81.6001 27.1347C80.3753 27.7116 79.0058 28 77.4915 28C75.6654 28 74.0398 27.5962 72.6146 26.7886C71.1893 25.981 70.0759 24.8274 69.2742 23.3276C68.4725 21.8278 68.0717 20.0742 68.0717 18.0667C68.0717 16.0593 68.4614 14.3057 69.2408 12.8059C70.0425 11.3061 71.1559 10.1525 72.5812 9.34487C74.0064 8.53729 75.6432 8.1335 77.4915 8.1335C79.2953 8.1335 80.8987 8.52575 82.3016 9.31026C83.7046 10.0948 84.7958 11.2138 85.5752 12.6675C86.3769 14.1211 86.7777 15.8171 86.7777 17.7553ZM80.9321 16.1978C80.9321 15.1825 80.598 14.3749 79.93 13.775C79.2619 13.1751 78.4268 12.8752 77.4247 12.8752C76.4671 12.8752 75.6543 13.1636 74.9862 13.7404C74.3404 14.3173 73.9396 15.1364 73.7837 16.1978H80.9321Z" fill="white"/>
<path d="M95.5031 2.11125V27.7231H89.7911V2.11125H95.5031Z" fill="white"/>
<path d="M107.225 28C105.6 28 104.152 27.7116 102.883 27.1347C101.613 26.5579 100.611 25.7734 99.8764 24.7812C99.1415 23.766 98.7295 22.6354 98.6404 21.3894H104.286C104.352 22.0585 104.653 22.6007 105.188 23.0161C105.722 23.4314 106.379 23.6391 107.158 23.6391C107.871 23.6391 108.417 23.5006 108.795 23.2237C109.196 22.9238 109.396 22.5431 109.396 22.0816C109.396 21.5278 109.118 21.124 108.561 20.8702C108.005 20.5933 107.103 20.2934 105.856 19.9703C104.519 19.6473 103.406 19.3127 102.515 18.9666C101.625 18.5974 100.856 18.0321 100.21 17.2707C99.5646 16.4862 99.2417 15.4363 99.2417 14.1211C99.2417 13.0136 99.5312 12.0099 100.11 11.11C100.711 10.1871 101.58 9.46024 102.716 8.92954C103.874 8.39885 105.243 8.1335 106.824 8.1335C109.163 8.1335 111 8.73342 112.336 9.93325C113.694 11.1331 114.474 12.7252 114.674 14.7095H109.396C109.307 14.0404 109.018 13.5097 108.528 13.1174C108.06 12.7252 107.437 12.529 106.657 12.529C105.989 12.529 105.477 12.6675 105.121 12.9444C104.764 13.1982 104.586 13.5558 104.586 14.0173C104.586 14.5711 104.865 14.9864 105.421 15.2633C106 15.5402 106.891 15.8171 108.094 16.0939C109.474 16.4631 110.599 16.8323 111.467 17.2015C112.336 17.5476 113.093 18.1244 113.739 18.932C114.407 19.7165 114.752 20.7779 114.774 22.1162C114.774 23.2468 114.463 24.2621 113.839 25.1619C113.238 26.0387 112.358 26.7309 111.2 27.2386C110.064 27.7462 108.739 28 107.225 28Z" fill="white"/>
<path d="M119.572 3.42645H125.417L121.676 12.7021H117.835L119.572 3.42645ZM127.154 3.42645H133L129.259 12.7021H125.417L127.154 3.42645Z" fill="white"/>
</g>
</svg>
