<svg width="239" height="63" viewBox="0 0 239 63" fill="none" xmlns="http://www.w3.org/2000/svg">
<g filter="url(#filter0_d_309_118)">
<rect width="231" height="55" rx="7" fill="#B4742A"/>
</g>
<path d="M49.5489 24.5167H43L47.1913 13.9159H51.4948L49.5489 24.5167ZM58.0437 24.5167H51.5322L55.7235 13.9159H59.9896L58.0437 24.5167Z" fill="white"/>
<path d="M84.1649 22.8554C84.1649 24.4639 83.8157 25.9407 83.1171 27.2855C82.4186 28.604 81.3458 29.672 79.8988 30.4895C78.4518 31.307 76.6556 31.7157 74.51 31.7157H70.5433V41.6836H64.1441V13.9159H74.51C76.6057 13.9159 78.377 14.2983 79.824 15.063C81.271 15.8278 82.3562 16.8826 83.0797 18.2274C83.8032 19.5723 84.1649 21.115 84.1649 22.8554ZM74.0235 26.3362C75.246 26.3362 76.1566 26.033 76.7553 25.4265C77.3541 24.8199 77.6535 23.9629 77.6535 22.8554C77.6535 21.7478 77.3541 20.8908 76.7553 20.2843C76.1566 19.6778 75.246 19.3745 74.0235 19.3745H70.5433V26.3362H74.0235Z" fill="white"/>
<path d="M90.7147 17.3177C89.592 17.3177 88.6689 16.9749 87.9454 16.2892C87.2469 15.5773 86.8976 14.707 86.8976 13.6786C86.8976 12.6238 87.2469 11.7536 87.9454 11.068C88.6689 10.356 89.592 10 90.7147 10C91.8124 10 92.7105 10.356 93.4091 11.068C94.1326 11.7536 94.4943 12.6238 94.4943 13.6786C94.4943 14.707 94.1326 15.5773 93.4091 16.2892C92.7105 16.9749 91.8124 17.3177 90.7147 17.3177ZM93.8956 19.6119V41.6836H87.4964V19.6119H93.8956Z" fill="white"/>
<path d="M110.882 41.6836L106.878 35.5525L103.51 41.6836H96.587L103.473 30.4104L96.3999 19.6119H103.585L107.589 25.7033L110.957 19.6119H117.88L110.882 30.7268L118.067 41.6836H110.882Z" fill="white"/>
<path d="M140.217 30.2917C140.217 30.9246 140.18 31.5839 140.105 32.2695H125.623C125.722 33.6407 126.134 34.6955 126.857 35.4339C127.606 36.1459 128.516 36.5019 129.589 36.5019C131.186 36.5019 132.296 35.7899 132.92 34.3659H139.731C139.381 35.8162 138.745 37.1216 137.822 38.2818C136.924 39.4421 135.789 40.3519 134.417 41.0111C133.045 41.6704 131.51 42 129.814 42C127.768 42 125.947 41.5385 124.35 40.6156C122.753 39.6926 121.506 38.3741 120.608 36.6601C119.71 34.946 119.261 32.9419 119.261 30.6477C119.261 28.3535 119.697 26.3494 120.571 24.6354C121.469 22.9213 122.716 21.6028 124.313 20.6799C125.909 19.7569 127.743 19.2954 129.814 19.2954C131.835 19.2954 133.631 19.7437 135.203 20.6403C136.774 21.5369 137.997 22.8158 138.87 24.4771C139.768 26.1384 140.217 28.0766 140.217 30.2917ZM133.668 28.5117C133.668 27.3515 133.294 26.4285 132.546 25.7429C131.797 25.0573 130.862 24.7145 129.739 24.7145C128.666 24.7145 127.756 25.0441 127.007 25.7033C126.284 26.3626 125.835 27.2987 125.66 28.5117H133.668Z" fill="white"/>
<path d="M149.992 12.4129V41.6836H143.593V12.4129H149.992Z" fill="white"/>
<path d="M163.124 42C161.303 42 159.682 41.6704 158.26 41.0111C156.838 40.3519 155.715 39.4553 154.892 38.3214C154.068 37.1611 153.607 35.869 153.507 34.445H159.831C159.906 35.2097 160.243 35.8294 160.842 36.3041C161.44 36.7787 162.176 37.0161 163.05 37.0161C163.848 37.0161 164.459 36.8579 164.883 36.5414C165.332 36.1986 165.557 35.7635 165.557 35.2361C165.557 34.6032 165.245 34.1417 164.621 33.8517C163.998 33.5352 162.987 33.1924 161.59 32.8232C160.093 32.4541 158.846 32.0717 157.848 31.6761C156.85 31.2542 155.989 30.6082 155.266 29.738C154.542 28.8414 154.181 27.6415 154.181 26.1384C154.181 24.8727 154.505 23.7256 155.154 22.6972C155.827 21.6424 156.8 20.8117 158.072 20.2052C159.37 19.5987 160.904 19.2954 162.675 19.2954C165.295 19.2954 167.353 19.981 168.85 21.3523C170.372 22.7235 171.245 24.5431 171.47 26.8109H165.557C165.457 26.0461 165.133 25.4396 164.584 24.9913C164.06 24.5431 163.361 24.3189 162.488 24.3189C161.74 24.3189 161.166 24.4771 160.767 24.7936C160.368 25.0836 160.168 25.4924 160.168 26.0198C160.168 26.6527 160.48 27.1273 161.104 27.4438C161.752 27.7602 162.75 28.0766 164.097 28.3931C165.644 28.815 166.904 29.2369 167.877 29.6588C168.85 30.0544 169.698 30.7136 170.422 31.6366C171.17 32.5332 171.557 33.7462 171.582 35.2757C171.582 36.5678 171.233 37.7281 170.534 38.7565C169.86 39.7586 168.875 40.5497 167.578 41.1298C166.305 41.7099 164.821 42 163.124 42Z" fill="white"/>
<path d="M176.956 13.9159H183.505L179.314 24.5167H175.01L176.956 13.9159ZM185.451 13.9159H192L187.809 24.5167H183.505L185.451 13.9159Z" fill="white"/>
<defs>
<filter id="filter0_d_309_118" x="0" y="0" width="239" height="63" filterUnits="userSpaceOnUse" color-interpolation-filters="sRGB">
<feFlood flood-opacity="0" result="BackgroundImageFix"/>
<feColorMatrix in="SourceAlpha" type="matrix" values="0 0 0 0 0 0 0 0 0 0 0 0 0 0 0 0 0 0 127 0" result="hardAlpha"/>
<feOffset dx="4" dy="4"/>
<feGaussianBlur stdDeviation="2"/>
<feComposite in2="hardAlpha" operator="out"/>
<feColorMatrix type="matrix" values="0 0 0 0 0 0 0 0 0 0 0 0 0 0 0 0 0 0 0.25 0"/>
<feBlend mode="normal" in2="BackgroundImageFix" result="effect1_dropShadow_309_118"/>
<feBlend mode="normal" in="SourceGraphic" in2="effect1_dropShadow_309_118" result="shape"/>
</filter>
</defs>
</svg>
