<svg width="71" height="304" viewBox="0 0 71 304" fill="none" xmlns="http://www.w3.org/2000/svg">
<rect x="1" y="1" width="69" height="302" fill="white" stroke="black" stroke-width="2"/>
<path d="M49.455 52.295L39 49.265L39 47.735L47.415 45.305L39 42.785L38.985 41.27L49.455 38.345L49.455 39.8L40.59 42.08L49.455 44.6L49.455 46.13L40.62 48.53L49.455 50.825L49.455 52.295ZM38.865 57.3738C38.865 56.6038 39.04 55.9038 39.39 55.2738C39.74 54.6538 40.235 54.1638 40.875 53.8038C41.525 53.4538 42.275 53.2788 43.125 53.2788C43.965 53.2788 44.705 53.4588 45.345 53.8188C45.995 54.1888 46.49 54.6888 46.83 55.3188C47.18 55.9488 47.355 56.6538 47.355 57.4338C47.355 58.2138 47.18 58.9188 46.83 59.5488C46.49 60.1788 46 60.6738 45.36 61.0338C44.72 61.4038 43.975 61.5888 43.125 61.5888C42.275 61.5888 41.525 61.3988 40.875 61.0188C40.235 60.6488 39.74 60.1438 39.39 59.5038C39.04 58.8638 38.865 58.1538 38.865 57.3738ZM40.065 57.3738C40.065 57.8638 40.18 58.3238 40.41 58.7538C40.64 59.1838 40.985 59.5288 41.445 59.7888C41.905 60.0588 42.465 60.1938 43.125 60.1938C43.785 60.1938 44.345 60.0638 44.805 59.8038C45.265 59.5438 45.605 59.2038 45.825 58.7838C46.055 58.3638 46.17 57.9088 46.17 57.4188C46.17 56.9188 46.055 56.4588 45.825 56.0388C45.605 55.6288 45.265 55.2988 44.805 55.0488C44.345 54.7988 43.785 54.6738 43.125 54.6738C42.455 54.6738 41.89 54.7938 41.43 55.0338C40.97 55.2838 40.625 55.6138 40.395 56.0238C40.175 56.4338 40.065 56.8838 40.065 57.3738ZM45.885 64.7485C46.355 64.9885 46.72 65.3285 46.98 65.7685C47.24 66.2185 47.37 66.7635 47.37 67.4035L45.96 67.4035L45.96 67.0435C45.96 65.5135 45.13 64.7485 43.47 64.7485L39 64.7485L39 63.3835L47.22 63.3835L47.22 64.7485L45.885 64.7485ZM39 73.5692L42.63 70.3442L39 70.3442L39 68.9792L50.1 68.9792L50.1 70.3442L43.575 70.3442L47.22 73.5092L47.22 75.4142L43.125 71.5442L39 75.4292L39 73.5692ZM43.14 80.188C43.98 80.188 44.715 80.358 45.345 80.698C45.985 81.038 46.48 81.503 46.83 82.093C47.18 82.693 47.355 83.363 47.355 84.103C47.355 84.743 47.205 85.338 46.905 85.888C46.615 86.438 46.23 86.858 45.75 87.148L50.1 87.148L50.1 88.528L39 88.528L39 87.148L40.545 87.148C40.055 86.878 39.65 86.478 39.33 85.948C39.02 85.418 38.865 84.798 38.865 84.088C38.865 83.358 39.045 82.693 39.405 82.093C39.765 81.503 40.27 81.038 40.92 80.698C41.57 80.358 42.31 80.188 43.14 80.188ZM43.125 87.148C43.745 87.148 44.285 87.023 44.745 86.773C45.205 86.523 45.555 86.183 45.795 85.753C46.045 85.333 46.17 84.868 46.17 84.358C46.17 83.848 46.05 83.383 45.81 82.963C45.57 82.543 45.22 82.208 44.76 81.958C44.3 81.708 43.76 81.583 43.14 81.583C42.51 81.583 41.96 81.708 41.49 81.958C41.03 82.208 40.675 82.543 40.425 82.963C40.185 83.383 40.065 83.848 40.065 84.358C40.065 84.868 40.185 85.333 40.425 85.753C40.675 86.183 41.03 86.523 41.49 86.773C41.96 87.023 42.505 87.148 43.125 87.148ZM38.865 94.4197C38.865 93.6497 39.04 92.9497 39.39 92.3197C39.74 91.6997 40.235 91.2097 40.875 90.8497C41.525 90.4997 42.275 90.3247 43.125 90.3247C43.965 90.3247 44.705 90.5047 45.345 90.8647C45.995 91.2347 46.49 91.7347 46.83 92.3647C47.18 92.9947 47.355 93.6997 47.355 94.4797C47.355 95.2597 47.18 95.9647 46.83 96.5947C46.49 97.2247 46 97.7197 45.36 98.0797C44.72 98.4497 43.975 98.6347 43.125 98.6347C42.275 98.6347 41.525 98.4447 40.875 98.0647C40.235 97.6947 39.74 97.1897 39.39 96.5497C39.04 95.9097 38.865 95.1997 38.865 94.4197ZM40.065 94.4197C40.065 94.9097 40.18 95.3697 40.41 95.7997C40.64 96.2297 40.985 96.5747 41.445 96.8347C41.905 97.1047 42.465 97.2397 43.125 97.2397C43.785 97.2397 44.345 97.1097 44.805 96.8497C45.265 96.5897 45.605 96.2497 45.825 95.8297C46.055 95.4097 46.17 94.9547 46.17 94.4647C46.17 93.9647 46.055 93.5047 45.825 93.0847C45.605 92.6747 45.265 92.3447 44.805 92.0947C44.345 91.8447 43.785 91.7197 43.125 91.7197C42.455 91.7197 41.89 91.8397 41.43 92.0797C40.97 92.3297 40.625 92.6597 40.395 93.0697C40.175 93.4797 40.065 93.9297 40.065 94.4197ZM47.37 104.434C47.37 105.434 47.065 106.244 46.455 106.864C45.855 107.484 44.985 107.794 43.845 107.794L39 107.794L39 106.444L43.65 106.444C44.47 106.444 45.095 106.239 45.525 105.829C45.965 105.419 46.185 104.859 46.185 104.149C46.185 103.429 45.96 102.854 45.51 102.424C45.06 102.004 44.405 101.794 43.545 101.794L39 101.794L39 100.429L47.22 100.429L47.22 101.794L46.05 101.794C46.47 102.064 46.795 102.429 47.025 102.889C47.255 103.359 47.37 103.874 47.37 104.434ZM43.425 117.524C43.165 117.524 42.89 117.509 42.6 117.479L42.6 110.909C41.79 110.959 41.155 111.234 40.695 111.734C40.245 112.244 40.02 112.859 40.02 113.579C40.02 114.169 40.155 114.659 40.425 115.049C40.705 115.449 41.075 115.729 41.535 115.889L41.535 117.359C40.745 117.139 40.1 116.699 39.6 116.039C39.11 115.379 38.865 114.559 38.865 113.579C38.865 112.799 39.04 112.099 39.39 111.479C39.74 110.869 40.235 110.389 40.875 110.039C41.525 109.689 42.275 109.514 43.125 109.514C43.975 109.514 44.72 109.684 45.36 110.024C46 110.364 46.49 110.839 46.83 111.449C47.18 112.069 47.355 112.779 47.355 113.579C47.355 114.359 47.185 115.049 46.845 115.649C46.505 116.249 46.035 116.709 45.435 117.029C44.845 117.359 44.175 117.524 43.425 117.524ZM43.71 116.114C44.23 116.114 44.675 115.999 45.045 115.769C45.425 115.539 45.71 115.224 45.9 114.824C46.1 114.434 46.2 113.999 46.2 113.519C46.2 112.829 45.98 112.239 45.54 111.749C45.1 111.269 44.49 110.994 43.71 110.924L43.71 116.114ZM45.69 124.69C46.18 124.97 46.58 125.38 46.89 125.92C47.2 126.46 47.355 127.075 47.355 127.765C47.355 128.505 47.18 129.17 46.83 129.76C46.48 130.35 45.985 130.815 45.345 131.155C44.715 131.495 43.98 131.665 43.14 131.665C42.31 131.665 41.57 131.495 40.92 131.155C40.27 130.815 39.765 130.345 39.405 129.745C39.045 129.155 38.865 128.495 38.865 127.765C38.865 127.055 39.02 126.43 39.33 125.89C39.64 125.36 40.035 124.96 40.515 124.69L39 124.69L39 123.325L50.1 123.325L50.1 124.69L45.69 124.69ZM43.14 130.27C43.76 130.27 44.3 130.145 44.76 129.895C45.22 129.645 45.57 129.305 45.81 128.875C46.05 128.455 46.17 127.99 46.17 127.48C46.17 126.98 46.045 126.515 45.795 126.085C45.555 125.665 45.2 125.325 44.73 125.065C44.27 124.815 43.735 124.69 43.125 124.69C42.505 124.69 41.96 124.815 41.49 125.065C41.03 125.325 40.675 125.665 40.425 126.085C40.185 126.515 40.065 126.98 40.065 127.48C40.065 127.99 40.185 128.455 40.425 128.875C40.675 129.305 41.03 129.645 41.49 129.895C41.96 130.145 42.51 130.27 43.14 130.27ZM47.22 140.542L35.13 135.592L35.13 134.182L39.09 135.802L47.22 132.487L47.22 134.002L40.56 136.582L47.22 139.132L47.22 140.542ZM39 151.418L43.275 148.928L43.275 147.278L39 147.278L39 145.913L49.455 145.913L49.455 149.288C49.455 150.078 49.32 150.743 49.05 151.283C48.78 151.833 48.415 152.243 47.955 152.513C47.495 152.783 46.97 152.918 46.38 152.918C45.66 152.918 45.025 152.708 44.475 152.288C43.925 151.878 43.56 151.258 43.38 150.428L39 153.053L39 151.418ZM44.37 147.278L44.37 149.288C44.37 150.028 44.55 150.583 44.91 150.953C45.28 151.323 45.77 151.508 46.38 151.508C47 151.508 47.48 151.323 47.82 150.953C48.16 150.593 48.33 150.038 48.33 149.288L48.33 147.278L44.37 147.278ZM49.455 156.404L39 156.404L39 155.039L49.455 155.039L49.455 156.404ZM38.895 162.045C38.895 161.355 39.015 160.735 39.255 160.185C39.505 159.645 39.845 159.22 40.275 158.91C40.715 158.6 41.22 158.44 41.79 158.43L41.79 159.885C41.3 159.935 40.885 160.135 40.545 160.485C40.215 160.845 40.05 161.365 40.05 162.045C40.05 162.695 40.21 163.205 40.53 163.575C40.86 163.955 41.28 164.145 41.79 164.145C42.19 164.145 42.515 164.035 42.765 163.815C43.015 163.595 43.205 163.32 43.335 162.99C43.465 162.66 43.605 162.215 43.755 161.655C43.935 160.965 44.115 160.41 44.295 159.99C44.475 159.58 44.755 159.225 45.135 158.925C45.525 158.635 46.045 158.49 46.695 158.49C47.265 158.49 47.77 158.635 48.21 158.925C48.65 159.215 48.99 159.62 49.23 160.14C49.47 160.67 49.59 161.275 49.59 161.955C49.59 162.935 49.345 163.735 48.855 164.355C48.365 164.985 47.715 165.34 46.905 165.42L46.905 163.92C47.305 163.87 47.655 163.66 47.955 163.29C48.265 162.92 48.42 162.43 48.42 161.82C48.42 161.25 48.27 160.785 47.97 160.425C47.68 160.065 47.27 159.885 46.74 159.885C46.36 159.885 46.05 159.99 45.81 160.2C45.57 160.42 45.385 160.685 45.255 160.995C45.135 161.315 44.995 161.76 44.835 162.33C44.645 163.02 44.455 163.575 44.265 163.995C44.085 164.415 43.8 164.775 43.41 165.075C43.03 165.375 42.51 165.525 41.85 165.525C41.34 165.525 40.86 165.39 40.41 165.12C39.96 164.85 39.595 164.45 39.315 163.92C39.035 163.39 38.895 162.765 38.895 162.045ZM49.455 170.789C49.455 171.929 49.24 172.914 48.81 173.744C48.39 174.584 47.785 175.224 46.995 175.664C46.205 176.114 45.275 176.339 44.205 176.339C43.135 176.339 42.205 176.114 41.415 175.664C40.635 175.224 40.035 174.584 39.615 173.744C39.205 172.914 39 171.929 39 170.789L39 167.534L49.455 167.534L49.455 170.789ZM40.125 170.789C40.125 172.139 40.48 173.169 41.19 173.879C41.91 174.589 42.915 174.944 44.205 174.944C45.505 174.944 46.52 174.584 47.25 173.864C47.98 173.154 48.345 172.129 48.345 170.789L48.345 168.899L40.125 168.899L40.125 170.789ZM43.125 181.628C43.975 181.628 44.715 181.798 45.345 182.138C45.985 182.478 46.48 182.948 46.83 183.548C47.18 184.158 47.355 184.853 47.355 185.633C47.355 186.643 47.11 187.473 46.62 188.123C46.13 188.783 45.45 189.218 44.58 189.428L44.58 187.958C45.08 187.818 45.475 187.543 45.765 187.133C46.055 186.733 46.2 186.233 46.2 185.633C46.2 184.853 45.93 184.223 45.39 183.743C44.86 183.263 44.105 183.023 43.125 183.023C42.135 183.023 41.37 183.263 40.83 183.743C40.29 184.223 40.02 184.853 40.02 185.633C40.02 186.233 40.16 186.733 40.44 187.133C40.72 187.533 41.12 187.808 41.64 187.958L41.64 189.428C40.8 189.208 40.125 188.768 39.615 188.108C39.115 187.448 38.865 186.623 38.865 185.633C38.865 184.853 39.04 184.158 39.39 183.548C39.74 182.948 40.235 182.478 40.875 182.138C41.515 181.798 42.265 181.628 43.125 181.628ZM38.865 194.835C38.865 194.065 39.04 193.365 39.39 192.735C39.74 192.115 40.235 191.625 40.875 191.265C41.525 190.915 42.275 190.74 43.125 190.74C43.965 190.74 44.705 190.92 45.345 191.28C45.995 191.65 46.49 192.15 46.83 192.78C47.18 193.41 47.355 194.115 47.355 194.895C47.355 195.675 47.18 196.38 46.83 197.01C46.49 197.64 46 198.135 45.36 198.495C44.72 198.865 43.975 199.05 43.125 199.05C42.275 199.05 41.525 198.86 40.875 198.48C40.235 198.11 39.74 197.605 39.39 196.965C39.04 196.325 38.865 195.615 38.865 194.835ZM40.065 194.835C40.065 195.325 40.18 195.785 40.41 196.215C40.64 196.645 40.985 196.99 41.445 197.25C41.905 197.52 42.465 197.655 43.125 197.655C43.785 197.655 44.345 197.525 44.805 197.265C45.265 197.005 45.605 196.665 45.825 196.245C46.055 195.825 46.17 195.37 46.17 194.88C46.17 194.38 46.055 193.92 45.825 193.5C45.605 193.09 45.265 192.76 44.805 192.51C44.345 192.26 43.785 192.135 43.125 192.135C42.455 192.135 41.89 192.255 41.43 192.495C40.97 192.745 40.625 193.075 40.395 193.485C40.175 193.895 40.065 194.345 40.065 194.835ZM47.37 210.729C47.37 211.369 47.235 211.939 46.965 212.439C46.705 212.939 46.31 213.334 45.78 213.624C45.25 213.914 44.605 214.059 43.845 214.059L39 214.059L39 212.709L43.65 212.709C44.47 212.709 45.095 212.504 45.525 212.094C45.965 211.694 46.185 211.149 46.185 210.459C46.185 209.749 45.955 209.184 45.495 208.764C45.045 208.344 44.39 208.134 43.53 208.134L39 208.134L39 206.784L43.65 206.784C44.47 206.784 45.095 206.579 45.525 206.169C45.965 205.769 46.185 205.224 46.185 204.534C46.185 203.824 45.955 203.259 45.495 202.839C45.045 202.419 44.39 202.209 43.53 202.209L39 202.209L39 200.844L47.22 200.844L47.22 202.209L46.035 202.209C46.465 202.479 46.795 202.839 47.025 203.289C47.255 203.749 47.37 204.254 47.37 204.804C47.37 205.494 47.215 206.104 46.905 206.634C46.595 207.164 46.14 207.559 45.54 207.819C46.12 208.049 46.57 208.429 46.89 208.959C47.21 209.489 47.37 210.079 47.37 210.729ZM47.37 226.184C47.37 226.824 47.235 227.394 46.965 227.894C46.705 228.394 46.31 228.789 45.78 229.079C45.25 229.369 44.605 229.514 43.845 229.514L39 229.514L39 228.164L43.65 228.164C44.47 228.164 45.095 227.959 45.525 227.549C45.965 227.149 46.185 226.604 46.185 225.914C46.185 225.204 45.955 224.639 45.495 224.219C45.045 223.799 44.39 223.589 43.53 223.589L39 223.589L39 222.239L43.65 222.239C44.47 222.239 45.095 222.034 45.525 221.624C45.965 221.224 46.185 220.679 46.185 219.989C46.185 219.279 45.955 218.714 45.495 218.294C45.045 217.874 44.39 217.664 43.53 217.664L39 217.664L39 216.299L47.22 216.299L47.22 217.664L46.035 217.664C46.465 217.934 46.795 218.294 47.025 218.744C47.255 219.204 47.37 219.709 47.37 220.259C47.37 220.949 47.215 221.559 46.905 222.089C46.595 222.619 46.14 223.014 45.54 223.274C46.12 223.504 46.57 223.884 46.89 224.414C47.21 224.944 47.37 225.534 47.37 226.184ZM47.22 239.043L39 239.043L39 237.678L40.215 237.678C39.795 237.418 39.465 237.053 39.225 236.583C38.995 236.123 38.88 235.613 38.88 235.053C38.88 234.413 39.01 233.838 39.27 233.328C39.54 232.818 39.94 232.413 40.47 232.113C41 231.823 41.645 231.678 42.405 231.678L47.22 231.678L47.22 233.028L42.585 233.028C41.775 233.028 41.15 233.233 40.71 233.643C40.28 234.053 40.065 234.613 40.065 235.323C40.065 236.053 40.29 236.628 40.74 237.048C41.19 237.468 41.845 237.678 42.705 237.678L47.22 237.678L47.22 239.043ZM47.37 245.352C47.37 246.352 47.065 247.162 46.455 247.782C45.855 248.402 44.985 248.712 43.845 248.712L39 248.712L39 247.362L43.65 247.362C44.47 247.362 45.095 247.157 45.525 246.747C45.965 246.337 46.185 245.777 46.185 245.067C46.185 244.347 45.96 243.772 45.51 243.342C45.06 242.922 44.405 242.712 43.545 242.712L39 242.712L39 241.347L47.22 241.347L47.22 242.712L46.05 242.712C46.47 242.982 46.795 243.347 47.025 243.807C47.255 244.277 47.37 244.792 47.37 245.352ZM48.555 251.647C48.555 251.387 48.645 251.167 48.825 250.987C49.005 250.807 49.225 250.717 49.485 250.717C49.745 250.717 49.965 250.807 50.145 250.987C50.325 251.167 50.415 251.387 50.415 251.647C50.415 251.897 50.325 252.107 50.145 252.277C49.965 252.457 49.745 252.547 49.485 252.547C49.225 252.547 49.005 252.457 48.825 252.277C48.645 252.107 48.555 251.897 48.555 251.647ZM47.22 252.307L39 252.307L39 250.942L47.22 250.942L47.22 252.307ZM46.095 256.299L41.25 256.299C40.85 256.299 40.565 256.384 40.395 256.554C40.235 256.724 40.155 257.019 40.155 257.439L40.155 258.444L39 258.444L39 257.214C39 256.454 39.175 255.884 39.525 255.504C39.875 255.124 40.45 254.934 41.25 254.934L46.095 254.934L46.095 253.869L47.22 253.869L47.22 254.934L49.29 254.934L49.29 256.299L47.22 256.299L47.22 258.444L46.095 258.444L46.095 256.299ZM47.22 267.177L35.13 262.227L35.13 260.817L39.09 262.437L47.22 259.122L47.22 260.637L40.56 263.217L47.22 265.767L47.22 267.177Z" fill="black"/>
<path d="M25.364 123.072L24.476 123.072L24.476 120.792L17 120.792L17 119.7L24.476 119.7L24.476 117.408L25.364 117.408L25.364 123.072ZM20.312 124.008C20.984 124.008 21.572 124.144 22.076 124.416C22.588 124.688 22.984 125.06 23.264 125.532C23.544 126.012 23.684 126.544 23.684 127.128C23.684 127.704 23.56 128.204 23.312 128.628C23.064 129.052 22.752 129.368 22.376 129.576L23.576 129.576L23.576 130.68L17 130.68L17 129.576L18.224 129.576C17.84 129.36 17.52 129.036 17.264 128.604C17.016 128.18 16.892 127.684 16.892 127.116C16.892 126.532 17.036 126.004 17.324 125.532C17.612 125.06 18.016 124.688 18.536 124.416C19.056 124.144 19.648 124.008 20.312 124.008ZM20.3 129.576C20.796 129.576 21.228 129.476 21.596 129.276C21.964 129.076 22.244 128.804 22.436 128.46C22.636 128.124 22.736 127.752 22.736 127.344C22.736 126.936 22.64 126.564 22.448 126.228C22.256 125.892 21.976 125.624 21.608 125.424C21.24 125.224 20.808 125.124 20.312 125.124C19.808 125.124 19.368 125.224 18.992 125.424C18.624 125.624 18.34 125.892 18.14 126.228C17.948 126.564 17.852 126.936 17.852 127.344C17.852 127.752 17.948 128.124 18.14 128.46C18.34 128.804 18.624 129.076 18.992 129.276C19.368 129.476 19.804 129.576 20.3 129.576ZM22.352 133.618C22.744 133.842 23.064 134.17 23.312 134.602C23.56 135.034 23.684 135.526 23.684 136.078C23.684 136.67 23.544 137.202 23.264 137.674C22.984 138.146 22.588 138.518 22.076 138.79C21.572 139.062 20.984 139.198 20.312 139.198C19.648 139.198 19.056 139.062 18.536 138.79C18.016 138.518 17.612 138.142 17.324 137.662C17.036 137.19 16.892 136.662 16.892 136.078C16.892 135.51 17.016 135.01 17.264 134.578C17.512 134.154 17.828 133.834 18.212 133.618L17 133.618L17 132.526L25.88 132.526L25.88 133.618L22.352 133.618ZM20.312 138.082C20.808 138.082 21.24 137.982 21.608 137.782C21.976 137.582 22.256 137.31 22.448 136.966C22.64 136.63 22.736 136.258 22.736 135.85C22.736 135.45 22.636 135.078 22.436 134.734C22.244 134.398 21.96 134.126 21.584 133.918C21.216 133.718 20.788 133.618 20.3 133.618C19.804 133.618 19.368 133.718 18.992 133.918C18.624 134.126 18.34 134.398 18.14 134.734C17.948 135.078 17.852 135.45 17.852 135.85C17.852 136.258 17.948 136.63 18.14 136.966C18.34 137.31 18.624 137.582 18.992 137.782C19.368 137.982 19.808 138.082 20.312 138.082ZM22.676 145.166L18.8 145.166C18.48 145.166 18.252 145.234 18.116 145.37C17.988 145.506 17.924 145.742 17.924 146.078L17.924 146.882L17 146.882L17 145.898C17 145.29 17.14 144.834 17.42 144.53C17.7 144.226 18.16 144.074 18.8 144.074L22.676 144.074L22.676 143.222L23.576 143.222L23.576 144.074L25.232 144.074L25.232 145.166L23.576 145.166L23.576 146.882L22.676 146.882L22.676 145.166ZM16.892 151.073C16.892 150.457 17.032 149.897 17.312 149.393C17.592 148.897 17.988 148.505 18.5 148.217C19.02 147.937 19.62 147.797 20.3 147.797C20.972 147.797 21.564 147.941 22.076 148.229C22.596 148.525 22.992 148.925 23.264 149.429C23.544 149.933 23.684 150.497 23.684 151.121C23.684 151.745 23.544 152.309 23.264 152.813C22.992 153.317 22.6 153.713 22.088 154.001C21.576 154.297 20.98 154.445 20.3 154.445C19.62 154.445 19.02 154.293 18.5 153.989C17.988 153.693 17.592 153.289 17.312 152.777C17.032 152.265 16.892 151.697 16.892 151.073ZM17.852 151.073C17.852 151.465 17.944 151.833 18.128 152.177C18.312 152.521 18.588 152.797 18.956 153.005C19.324 153.221 19.772 153.329 20.3 153.329C20.828 153.329 21.276 153.225 21.644 153.017C22.012 152.809 22.284 152.537 22.46 152.201C22.644 151.865 22.736 151.501 22.736 151.109C22.736 150.709 22.644 150.341 22.46 150.005C22.284 149.677 22.012 149.413 21.644 149.213C21.276 149.013 20.828 148.913 20.3 148.913C19.764 148.913 19.312 149.009 18.944 149.201C18.576 149.401 18.3 149.665 18.116 149.993C17.94 150.321 17.852 150.681 17.852 151.073ZM18.008 161.528L23.576 163.568L23.576 164.732L17 162.152L17 160.88L23.576 158.3L23.576 159.476L18.008 161.528ZM24.644 166.371C24.644 166.163 24.716 165.987 24.86 165.843C25.004 165.699 25.18 165.627 25.388 165.627C25.596 165.627 25.772 165.699 25.916 165.843C26.06 165.987 26.132 166.163 26.132 166.371C26.132 166.571 26.06 166.739 25.916 166.875C25.772 167.019 25.596 167.091 25.388 167.091C25.18 167.091 25.004 167.019 24.86 166.875C24.716 166.739 24.644 166.571 24.644 166.371ZM23.576 166.899L17 166.899L17 165.807L23.576 165.807L23.576 166.899ZM20.54 174.76C20.332 174.76 20.112 174.748 19.88 174.724L19.88 169.468C19.232 169.508 18.724 169.728 18.356 170.128C17.996 170.536 17.816 171.028 17.816 171.604C17.816 172.076 17.924 172.468 18.14 172.78C18.364 173.1 18.66 173.324 19.028 173.452L19.028 174.628C18.396 174.452 17.88 174.1 17.48 173.572C17.088 173.044 16.892 172.388 16.892 171.604C16.892 170.98 17.032 170.42 17.312 169.924C17.592 169.436 17.988 169.052 18.5 168.772C19.02 168.492 19.62 168.352 20.3 168.352C20.98 168.352 21.576 168.488 22.088 168.76C22.6 169.032 22.992 169.412 23.264 169.9C23.544 170.396 23.684 170.964 23.684 171.604C23.684 172.228 23.548 172.78 23.276 173.26C23.004 173.74 22.628 174.108 22.148 174.364C21.676 174.628 21.14 174.76 20.54 174.76ZM20.768 173.632C21.184 173.632 21.54 173.54 21.836 173.356C22.14 173.172 22.368 172.92 22.52 172.6C22.68 172.288 22.76 171.94 22.76 171.556C22.76 171.004 22.584 170.532 22.232 170.14C21.88 169.756 21.392 169.536 20.768 169.48L20.768 173.632ZM23.576 184.961L17 182.909L17 181.781L22.22 180.197L17 178.613L17 177.485L23.576 175.421L23.576 176.537L18.056 178.049L23.576 179.681L23.576 180.797L18.044 182.393L23.576 183.881L23.576 184.961Z" fill="#8B8585"/>
</svg>
